<?xml version="1.0" encoding="UTF-8" standalone="no"?>
<!-- Created with Inkscape (http://www.inkscape.org/) -->

<svg
   width="210mm"
   height="297mm"
   viewBox="0 0 210 297"
   version="1.1"
   id="svg1"
   inkscape:version="1.3.2 (091e20ef0f, 2023-11-25)"
   sodipodi:docname="disk.svg"
   inkscape:export-filename="disk.png"
   inkscape:export-xdpi="96"
   inkscape:export-ydpi="96"
   xmlns:inkscape="http://www.inkscape.org/namespaces/inkscape"
   xmlns:sodipodi="http://sodipodi.sourceforge.net/DTD/sodipodi-0.dtd"
   xmlns="http://www.w3.org/2000/svg"
   xmlns:svg="http://www.w3.org/2000/svg">
  <sodipodi:namedview
     id="namedview1"
     pagecolor="#ffffff"
     bordercolor="#666666"
     borderopacity="1.0"
     inkscape:showpageshadow="2"
     inkscape:pageopacity="0.0"
     inkscape:pagecheckerboard="0"
     inkscape:deskcolor="#d1d1d1"
     inkscape:document-units="mm"
     inkscape:zoom="0.71713664"
     inkscape:cx="465.04387"
     inkscape:cy="484.56595"
     inkscape:window-width="1920"
     inkscape:window-height="1011"
     inkscape:window-x="0"
     inkscape:window-y="32"
     inkscape:window-maximized="1"
     inkscape:current-layer="layer1" />
  <defs
     id="defs1" />
  <g
     inkscape:label="Layer 1"
     inkscape:groupmode="layer"
     id="layer1">
    <circle
       style="opacity:0.752327;fill:none;stroke:#000000;stroke-width:0.264999;stroke-linecap:round;stroke-dasharray:none;stroke-opacity:1"
       id="path1"
       cx="91.651001"
       cy="143.41428"
       r="42.306427"
       inkscape:label="C4" />
    <g
       id="g11"
       inkscape:label="Level 3">
      <path
         style="opacity:0.752327;fill:#008000;stroke:#000000;stroke-width:0.493783;stroke-linecap:round;stroke-dasharray:none;stroke-opacity:1"
         d="m 436.07931,595.0232 c -8.94004,-5.02552 -17.16059,-8.98438 -17.27176,-9.09554 -0.11116,-0.11117 1.25557,-2.32738 2.34598,-4.43867 2.75196,-5.32845 5.6807,-12.58699 7.07066,-18.71773 7.5212,-33.17387 -6.40197,-67.54339 -34.8046,-85.91561 -23.74541,-15.3597 -54.03721,-17.20748 -79.54132,-4.85197 -12.52742,6.06892 -24.0679,16.07153 -31.48482,27.28917 -1.38944,2.10144 -2.55802,3.8208 -2.59684,3.8208 -0.12649,0 -36.49293,-20.29614 -36.65889,-20.45936 -0.33222,-0.32673 6.29601,-10.04332 10.10705,-14.81634 15.92142,-19.94027 39.62966,-35.376 63.8865,-41.59461 36.62524,-9.38943 73.81137,-1.92873 104.14322,20.89438 14.63819,11.01447 26.80149,25.8196 35.25414,42.91125 8.66076,17.51245 12.43453,33.61846 12.47568,53.24475 0.0325,15.4802 -2.24965,28.59926 -7.37537,42.3986 -2.26162,6.0887 -8.04952,18.98663 -8.84654,19.23491 -0.24666,0.0768 -7.76305,-4.87851 -16.70309,-9.90403 z"
         id="path11"
         inkscape:label="H1"
         transform="scale(0.26458333)"
         sodipodi:nodetypes="sssssssssssssssss" />
      <path
         style="opacity:0.752327;fill:#000080;stroke:#000000;stroke-width:0.493783;stroke-linecap:round;stroke-dasharray:none;stroke-opacity:1"
         d="m 339.21679,664.53778 c -0.67788,-0.1145 -5.22919,-0.44961 -7.66958,-0.74468 -10.23074,-1.23703 -22.75041,-4.79094 -32.92844,-9.34727 -46.20321,-20.68347 -75.00616,-68.00836 -71.82274,-118.00882 1.06086,-16.66246 4.78135,-30.80095 12.10402,-45.99729 l 3.13763,-6.51135 16.40686,9.14352 c 9.02378,5.02894 17.35263,9.68945 18.50855,10.35669 l 2.10168,1.21316 -1.21105,2.07075 c -3.40522,5.82249 -7.50799,18.57899 -8.67244,26.9647 -0.87378,6.29252 -0.63462,18.24331 0.49762,24.86558 6.2363,36.47508 37.17674,64.45892 73.82325,66.76886 29.38734,1.85237 55.40053,-10.6815 71.92543,-34.7718 l 2.75467,-4.0158 17.12869,9.88375 16.73403,9.37144 -1.919,3.02124 c -11.63684,18.32086 -28.95843,33.81699 -48.56176,43.44404 -11.87449,5.83147 -22.92166,9.38878 -35.25,11.35087 -4.90302,0.78033 -24.00019,1.46386 -27.08742,0.94241 z"
         id="path12"
         transform="scale(0.26458333)"
         inkscape:label="H2"
         sodipodi:nodetypes="ssssscsscssssscccssss" />
      <circle
         style="opacity:0.752327;fill:none;stroke:#000000;stroke-width:0.202164;stroke-linecap:round;stroke-dasharray:none;stroke-opacity:1"
         id="path1-5"
         cx="92.039413"
         cy="143.83128"
         r="32.27494"
         inkscape:label="Circle" />
    </g>
    <g
       id="g14">
      <path
         style="opacity:0.752327;fill:#800000;stroke:none;stroke-width:0.0946528;stroke-linecap:round;stroke-dasharray:none;stroke-opacity:1"
         d="m 71.242826,143.69549 c 0.167763,-3.18834 0.89223,-6.03219 2.223985,-8.73009 1.134876,-2.29908 2.404048,-4.27927 4.277762,-6.09742 1.708981,-1.65833 3.482315,-2.71874 5.585783,-3.74464 2.683208,-1.30864 5.387702,-2.00695 8.469952,-2.18696 l 1.108879,-0.0647 v 5.30594 5.30593 l -0.637017,0.061 c -2.92053,0.27998 -5.126694,1.28688 -7.053862,3.21941 -1.981451,1.98697 -3.106278,4.57388 -3.178507,7.31007 l -0.02313,0.87538 H 76.596763 71.17684 Z"
         id="path14"
         sodipodi:nodetypes="sssscccccsscccs" />
      <circle
         style="opacity:0.752327;fill:none;stroke:#000000;stroke-width:0.280356;stroke-linecap:round;stroke-dasharray:none;stroke-opacity:1"
         id="path2"
         cx="92.434158"
         cy="144.12866"
         r="21.205999"
         inkscape:label="C2" />
    </g>
    <g
       id="g13">
      <path
         style="opacity:0.752327;fill:#800000;stroke:none;stroke-width:0.135257;stroke-linecap:round;stroke-dasharray:none;stroke-opacity:1"
         d="m 85.182643,151.52433 c -3.940325,-4.15392 -3.957783,-10.56281 -0.03969,-14.57402 l 0.897915,-0.91927 3.322273,4.10849 c 1.827251,2.25967 3.305303,4.16971 3.284558,4.24452 -0.06867,0.24763 -6.571618,7.77909 -6.716772,7.77909 -0.07827,0 -0.414997,-0.28746 -0.748279,-0.63881 z"
         id="path13" />
      <path
         style="fill:none;stroke:#000000;stroke-width:0.264583px;stroke-linecap:butt;stroke-linejoin:miter;stroke-opacity:1"
         d="M 103.12755,144.30125 H 92.775631 l -6.746937,7.96317"
         id="path4" />
      <path
         style="fill:none;stroke:#000000;stroke-width:0.264583px;stroke-linecap:butt;stroke-linejoin:miter;stroke-opacity:1"
         d="M 92.785995,144.31833 86.01222,135.93535"
         id="path5" />
      <circle
         style="opacity:0.752327;fill:none;stroke:#000000;stroke-width:0.264999;stroke-linecap:round;stroke-dasharray:none;stroke-opacity:1"
         id="path3"
         cx="92.659027"
         cy="144.1563"
         r="10.531886"
         inkscape:label="C1" />
    </g>
    <path
       style="fill:none;stroke:#000000;stroke-width:0.264583px;stroke-linecap:butt;stroke-linejoin:miter;stroke-opacity:1"
       d="M 92.703683,165.39462 V 154.72118"
       id="path6" />
    <path
       style="fill:none;stroke:#000000;stroke-width:0.264583px;stroke-linecap:butt;stroke-linejoin:miter;stroke-opacity:1"
       d="M 92.750448,133.54867 V 123.09433"
       id="path7" />
    <path
       style="fill:none;stroke:#000000;stroke-width:0.264583px;stroke-linecap:butt;stroke-linejoin:miter;stroke-opacity:1"
       d="m 103.26604,144.3246 h 10.31261"
       id="path8" />
    <path
       style="fill:none;stroke:#000000;stroke-width:0.264583px;stroke-linecap:butt;stroke-linejoin:miter;stroke-opacity:1"
       d="M 82.042171,144.79642 H 71.247417"
       id="path9" />
    <path
       style="fill:none;stroke:#000000;stroke-width:0.264583px;stroke-linecap:butt;stroke-linejoin:miter;stroke-opacity:1"
       d="m 63.954244,127.75578 10.248152,5.71046"
       id="path10"
       sodipodi:nodetypes="cc" />
    <path
       style="fill:none;stroke:#000000;stroke-width:0.264583px;stroke-linecap:butt;stroke-linejoin:miter;stroke-opacity:1"
       d="m 110.5147,154.94795 9.25697,5.19127"
       id="path10-2"
       sodipodi:nodetypes="cc" />
    <path
       style="opacity:0.752327;fill:#000080;stroke:#000000;stroke-width:0.493783;stroke-linecap:round;stroke-dasharray:none;stroke-opacity:1"
       d="m 390.77229,543.41697 c 0.12345,-0.61944 -0.30031,-1.90572 -0.30401,-2.87918 -0.0106,-2.77709 -1.82662,-9.21434 -3.74279,-13.2668 -5.80631,-12.27959 -18.40737,-21.28814 -31.60201,-22.5924 l -3.9973,-0.33242 0.0617,-19.59052 0.003,-19.74596 5.91692,0.42553 c 18.29509,1.31577 36.88358,10.17337 50.24839,24.26771 13.09235,13.80702 19.99742,31.65135 21.23855,51.00251 l 0.24506,4.21119 -18.88525,0.21274 -19.52048,-0.0153 z"
       id="path16"
       transform="scale(0.26458333)"
       sodipodi:nodetypes="sssscccssscccs" />
    <path
       style="opacity:0.752327;fill:#000080;stroke:#000000;stroke-width:0.493783;stroke-linecap:round;stroke-dasharray:none;stroke-opacity:1"
       d="m 351.02099,604.7215 v -19.17886 l 3.08129,-0.3291 c 14.74722,-1.57504 26.62956,-10.07439 32.86656,-23.5092 1.8983,-4.08902 3.09938,-12.69387 3.09938,-15.49363 0,-3.22352 -0.89217,-0.20545 19.90753,-0.20545 h 18.9157 l 0.16961,2.00453 c 0.0636,0.75197 -0.2677,3.05928 -0.42057,5.22852 -1.2291,17.44126 -10.79383,36.58843 -24.26915,49.1729 -8.92933,8.339 -18.60368,14.29945 -29.91415,18.08106 -6.27643,2.0985 -15.94001,4.71773 -20.52715,4.31896 l -3.19224,-0.2775 z"
       id="path17"
       transform="scale(0.26458333)"
       sodipodi:nodetypes="ccsssscssssscc" />
    <path
       style="opacity:0.752327;fill:#008000;stroke:#000000;stroke-width:0.246892;stroke-linecap:round;stroke-dasharray:none;stroke-opacity:1"
       d="m 343.25613,624.00211 c -10.4175,-0.84112 -19.86934,-3.47719 -29.20523,-8.14518 -8.65566,-4.32787 -14.66357,-8.70918 -21.46917,-15.65654 -13.40852,-13.68781 -21.08235,-30.7635 -22.55517,-50.18945 l -0.16353,-2.1569 h 19.98083 19.98084 l 0.15071,1.17089 c 1.23786,9.61675 5.09807,17.76313 11.46081,24.18624 7.11104,7.17853 15.82582,11.15157 26.3186,11.99855 l 2.03365,0.16416 v 19.44812 19.44812 l -2.03365,-0.0345 c -1.11851,-0.019 -3.14292,-0.12406 -4.49869,-0.23352 z"
       id="path18"
       transform="scale(0.26458333)" />
    <path
       style="opacity:0.752327;fill:#008000;stroke:#000000;stroke-width:0.246892;stroke-linecap:round;stroke-dasharray:none;stroke-opacity:1"
       d="m 346.33742,583.84529 c -6.58576,-0.76247 -12.3439,-2.85293 -17.78303,-6.45602 l -2.65473,-1.7586 0.55318,-0.65741 c 0.30424,-0.36158 5.92464,-6.99956 12.48977,-14.75108 l 11.93659,-14.09367 h 19.2467 19.2467 l -0.19578,2.28016 c -0.93067,10.83899 -6.732,21.18383 -15.60076,27.81906 -4.81694,3.60383 -11.13684,6.29956 -17.00874,7.25502 -2.83144,0.46072 -7.84667,0.63846 -10.2299,0.36254 z"
       id="path19"
       transform="scale(0.26458333)" />
    <path
       style="opacity:0.752327;fill:#008000;stroke:#000000;stroke-width:0.246892;stroke-linecap:round;stroke-dasharray:none;stroke-opacity:1"
       d="m 338.78781,529.69684 c -6.76166,-8.35954 -12.37564,-15.33542 -12.47551,-15.50196 -0.24903,-0.41525 3.62384,-3.00422 6.80556,-4.54944 2.99661,-1.45532 6.02838,-2.48649 9.52201,-3.23866 3.78332,-0.81453 11.00162,-0.82433 14.96961,-0.0203 15.06943,3.05341 26.89649,14.27131 30.59498,29.01916 0.53869,2.14806 0.90864,4.60374 1.1419,7.57998 l 0.14973,1.91041 h -19.20718 -19.20718 z"
       id="path20"
       transform="scale(0.26458333)" />
    <path
       style="opacity:0.752327;fill:#800000;stroke:#000000;stroke-width:0.493783;stroke-linecap:round;stroke-dasharray:none;stroke-opacity:1"
       d="m 337.9563,700.97404 c -38.91752,-2.3792 -74.28047,-17.79361 -101.86154,-44.40057 -49.75251,-47.99536 -62.92687,-122.10726 -32.74111,-184.18397 15.01096,-30.86991 40.56239,-56.79096 71.24501,-72.27564 32.90521,-16.60636 69.0908,-21.26587 105.48124,-13.58248 26.94726,5.68957 54.27541,19.96021 74.28447,38.791 10.51561,9.89637 17.29782,17.86259 24.67581,28.98358 14.61456,22.02881 23.0185,45.83173 25.81352,73.11298 0.8873,8.66064 0.37521,28.77862 -0.95624,37.56709 -5.0799,33.53065 -20.07426,63.82838 -43.39521,87.68469 -14.04874,14.37125 -27.93455,24.39855 -45.41978,32.79879 -23.85942,11.46253 -51.69876,17.05902 -77.12617,15.50453 z m 26.77203,-35.89577 c 13.3222,-1.92634 25.2497,-5.62901 37.31888,-11.58492 37.64922,-18.57921 62.75597,-54.22261 67.59784,-95.96692 0.98351,-8.47934 0.72215,-24.39031 -0.53343,-32.47397 -6.74045,-43.39629 -36.02259,-79.84628 -76.92455,-95.75457 -14.54091,-5.6555 -27.95565,-8.09826 -44.4176,-8.08824 -14.35903,0.009 -25.26638,1.71134 -38.16107,5.9568 -40.61121,13.37086 -71.26006,46.74315 -81.06869,88.27238 -2.37323,10.04812 -2.96929,15.67772 -2.9754,28.1014 -0.009,17.58002 2.45537,30.88538 8.44521,45.60314 17.5461,43.11292 56.79257,72.32391 102.96077,76.63327 6.4608,0.60306 21.34793,0.22851 27.75804,-0.69837 z"
       id="path21"
       transform="scale(0.26458333)" />
  </g>
</svg>
