<?xml version="1.0" encoding="UTF-8" standalone="no"?>
<svg
   version="1.0"
   width="416.4108pt"
   height="111.41826pt"
   viewBox="0 0 416.41079 111.41826"
   preserveAspectRatio="xMidYMid"
   id="svg8"
   sodipodi:docname="analysis.svg"
   inkscape:version="1.3.2 (091e20ef0f, 2023-11-25)"
   inkscape:export-filename="analysis.png"
   inkscape:export-xdpi="96"
   inkscape:export-ydpi="96"
   xmlns:inkscape="http://www.inkscape.org/namespaces/inkscape"
   xmlns:sodipodi="http://sodipodi.sourceforge.net/DTD/sodipodi-0.dtd"
   xmlns="http://www.w3.org/2000/svg"
   xmlns:svg="http://www.w3.org/2000/svg"
   xmlns:ns5="http://www.iki.fi/pav/software/textext/">
  <sodipodi:namedview
     id="namedview8"
     pagecolor="#ffffff"
     bordercolor="#666666"
     borderopacity="1.0"
     inkscape:showpageshadow="2"
     inkscape:pageopacity="0.0"
     inkscape:pagecheckerboard="0"
     inkscape:deskcolor="#d1d1d1"
     inkscape:document-units="pt"
     inkscape:zoom="0.78984375"
     inkscape:cx="229.79228"
     inkscape:cy="41.147379"
     inkscape:window-width="1920"
     inkscape:window-height="1011"
     inkscape:window-x="0"
     inkscape:window-y="32"
     inkscape:window-maximized="1"
     inkscape:current-layer="svg8"
     showguides="false"
     showgrid="false" />
  <defs
     id="defs8" />
  <metadata
     id="metadata1">
Created by potrace 1.15, written by Peter Selinger 2001-2017
</metadata>
  <text
     xml:space="preserve"
     style="font-size:12px;line-height:1.25;font-family:sans-serif;stroke-width:0.75"
     x="211.76482"
     y="93.538261"
     id="text8-6"><tspan
       sodipodi:role="line"
       style="text-align:center;text-anchor:middle;stroke-width:0.75"
       x="211.76482"
       y="93.538261"
       id="tspan4">Scoring to same basket</tspan><tspan
       sodipodi:role="line"
       style="text-align:center;text-anchor:middle;stroke-width:0.75"
       x="211.76482"
       y="108.53826"
       id="tspan9">Probability=0.5</tspan></text>
  <text
     xml:space="preserve"
     style="font-size:12px;line-height:1.25;font-family:sans-serif;stroke-width:0.75"
     x="116.05686"
     y="22.093224"
     id="text8-9"><tspan
       sodipodi:role="line"
       style="text-align:center;text-anchor:middle;stroke-width:0.75"
       x="116.05686"
       y="22.093224"
       id="tspan1">Scoring to first basket</tspan><tspan
       sodipodi:role="line"
       style="text-align:center;text-anchor:middle;stroke-width:0.75"
       x="116.05686"
       y="37.093224"
       id="tspan2">Probability=1</tspan></text>
  <text
     xml:space="preserve"
     style="font-size:12px;line-height:1.25;font-family:sans-serif;stroke-width:0.75"
     x="296.8732"
     y="9.1800003"
     id="text8-9-3"><tspan
       sodipodi:role="line"
       style="text-align:center;text-anchor:middle;stroke-width:0.75"
       x="296.8732"
       y="9.1800003"
       id="tspan2-3">Scoring to a different </tspan><tspan
       sodipodi:role="line"
       style="text-align:center;text-anchor:middle;stroke-width:0.75"
       x="296.8732"
       y="24.18"
       id="tspan6">basket</tspan><tspan
       sodipodi:role="line"
       style="text-align:center;text-anchor:middle;stroke-width:0.75"
       x="296.8732"
       y="39.18"
       id="tspan7">Probability=0.5</tspan></text>
  <g
     ns5:version="1.10.1"
     ns5:texconverter="pdflatex"
     ns5:pdfconverter="inkscape"
     ns5:text="\\begin{tikzpicture}[-&gt;,&gt;=stealth',shorten &gt;=1pt,auto,node distance=4cm,\n\t\t\tthick,main node/.style={circle,draw,font=\\Large\\bfseries}]\n\t\t\t\\node[main node] (1) {$C_0$}; \n\t\t\t\\node[main node] (2) [right of =1] {$C_1$}; \n\t\t\t\\node[main node] (3) [right of =2] {$C_2$}; \n\t\t\t\\path (1) edge (2)\n\t\t\t(2) edge (3);\n\t\t\t\\path (2) edge  [loop below] (2);\n\t\t\\end{tikzpicture} "
     ns5:preamble="/home/ramizouari/Academic/AI/MeanPayOffGames/report/Template/packages.tex"
     ns5:scale="1.6232567441829524"
     ns5:alignment="middle center"
     ns5:stroke-to-path="0"
     ns5:inkscapeversion="1.3.2"
     transform="matrix(1.62326,0,0,1.62326,0,2.0954181)"
     id="g3136"
     ns5:jacobian_sqrt="1.62326">
    <defs
       id="id-dcd81bb3-c810-408f-99da-924519ef880b">
      <g
         id="id-733f0a6e-b6c6-4871-83b2-738c12fb4300">
        <g
           id="id-db52e26e-fdb7-48be-bc04-e802757abc42">
          <path
             d="m 10.71875,-9.96875 c 0,-0.125 -0.109375,-0.125 -0.140625,-0.125 -0.01563,0 -0.07813,0 -0.1875,0.140625 l -1,1.203125 c -0.5,-0.859375 -1.28125,-1.34375 -2.359375,-1.34375 -3.09375,0 -6.3125,3.140625 -6.3125,6.515625 0,2.390625 1.671875,3.875 3.765625,3.875 1.15625,0 2.15625,-0.484375 2.984375,-1.1875 1.25,-1.046875 1.625,-2.4375 1.625,-2.546875 0,-0.140625 -0.109375,-0.140625 -0.15625,-0.140625 -0.125,0 -0.140625,0.09375 -0.171875,0.15625 -0.65625,2.234375 -2.59375,3.3125 -4.03125,3.3125 -1.515625,0 -2.84375,-0.984375 -2.84375,-3.015625 0,-0.453125 0.140625,-2.953125 1.765625,-4.828125 0.796875,-0.921875 2.140625,-1.734375 3.5,-1.734375 1.578125,0 2.28125,1.3125 2.28125,2.78125 0,0.359375 -0.046875,0.6875 -0.046875,0.734375 0,0.140625 0.140625,0.140625 0.1875,0.140625 0.15625,0 0.171875,-0.015625 0.234375,-0.28125 z m 0,0"
             id="id-29dff304-f67b-4d5d-aa74-81bf7e13a25a" />
        </g>
        <g
           id="id-fd114f0c-ec8b-4c91-a368-aebcb5a12946">
          <path
             d="m 4.578125,-3.1875 c 0,-0.796875 -0.046875,-1.59375 -0.390625,-2.328125 -0.453125,-0.96875 -1.28125,-1.125 -1.6875,-1.125 -0.609375,0 -1.328125,0.265625 -1.75,1.1875 -0.3125,0.6875 -0.359375,1.46875 -0.359375,2.265625 0,0.75 0.03125,1.640625 0.453125,2.40625 0.421875,0.796875 1.15625,1 1.640625,1 0.53125,0 1.296875,-0.203125 1.734375,-1.15625 0.3125,-0.6875 0.359375,-1.46875 0.359375,-2.25 z M 2.484375,0 C 2.09375,0 1.5,-0.25 1.328125,-1.203125 1.21875,-1.796875 1.21875,-2.71875 1.21875,-3.3125 c 0,-0.640625 0,-1.296875 0.078125,-1.828125 0.1875,-1.1875 0.9375,-1.28125 1.1875,-1.28125 0.328125,0 0.984375,0.1875 1.171875,1.171875 0.109375,0.5625 0.109375,1.3125 0.109375,1.9375 0,0.75 0,1.421875 -0.109375,2.0625 C 3.5,-0.296875 2.9375,0 2.484375,0 Z m 0,0"
             id="id-afab70ca-14ad-4ae0-beb1-da89f4de265e" />
        </g>
        <g
           id="id-0a038e01-5a9e-4562-a9ae-52adad6d246e">
          <path
             d="m 2.9375,-6.375 c 0,-0.25 0,-0.265625 -0.234375,-0.265625 C 2.078125,-6 1.203125,-6 0.890625,-6 v 0.3125 c 0.203125,0 0.78125,0 1.296875,-0.265625 v 5.171875 c 0,0.359375 -0.03125,0.46875 -0.921875,0.46875 h -0.3125 V 0 c 0.34375,-0.03125 1.203125,-0.03125 1.609375,-0.03125 0.390625,0 1.265625,0 1.609375,0.03125 v -0.3125 h -0.3125 c -0.90625,0 -0.921875,-0.109375 -0.921875,-0.46875 z m 0,0"
             id="id-be1ee9fe-d2c3-4cbe-9121-a99a0de2be14" />
        </g>
        <g
           id="id-4d8b2a26-47a8-4d07-9c68-4baf8f93c33c">
          <path
             d="m 1.265625,-0.765625 1.0625,-1.03125 c 1.546875,-1.375 2.140625,-1.90625 2.140625,-2.90625 0,-1.140625 -0.890625,-1.9375 -2.109375,-1.9375 -1.125,0 -1.859375,0.921875 -1.859375,1.8125 0,0.546875 0.5,0.546875 0.53125,0.546875 0.171875,0 0.515625,-0.109375 0.515625,-0.53125 0,-0.25 -0.1875,-0.515625 -0.53125,-0.515625 -0.078125,0 -0.09375,0 -0.125,0.015625 0.21875,-0.65625 0.765625,-1.015625 1.34375,-1.015625 0.90625,0 1.328125,0.8125 1.328125,1.625 C 3.5625,-3.90625 3.078125,-3.125 2.515625,-2.5 l -1.90625,2.125 C 0.5,-0.265625 0.5,-0.234375 0.5,0 H 4.203125 L 4.46875,-1.734375 H 4.234375 C 4.171875,-1.4375 4.109375,-1 4,-0.84375 3.9375,-0.765625 3.28125,-0.765625 3.0625,-0.765625 Z m 0,0"
             id="id-fb42da0c-2378-4466-ba1e-dc4818c413ca" />
        </g>
      </g>
    </defs>
    <path
       fill="none"
       stroke-width="0.79701"
       stroke-linecap="butt"
       stroke-linejoin="miter"
       stroke="#000000"
       stroke-opacity="1"
       stroke-miterlimit="10"
       d="m 29.355536,14.878973 c 0,-8 -6.484375,-14.480468 -14.480468,-14.480468 -7.996094,0 -14.476563,6.480468 -14.476563,14.480468 0,7.996094 6.480469,14.476563 14.476563,14.476563 7.996093,0 14.480468,-6.480469 14.480468,-14.476563 z m 0,0"
       id="id-a534810a-f4db-4ce7-a21d-ea9fef4a7174" />
    <g
       fill="#000000"
       fill-opacity="1"
       id="id-e11fc226-eba0-4dc5-978b-89973ed19ece"
       transform="translate(-86.9452,-71.9999)">
      <g
         transform="translate(94.056,90.703)"
         id="g6293">
        <path
           d="m 10.71875,-9.96875 c 0,-0.125 -0.109375,-0.125 -0.140625,-0.125 -0.01563,0 -0.07813,0 -0.1875,0.140625 l -1,1.203125 c -0.5,-0.859375 -1.28125,-1.34375 -2.359375,-1.34375 -3.09375,0 -6.3125,3.140625 -6.3125,6.515625 0,2.390625 1.671875,3.875 3.765625,3.875 1.15625,0 2.15625,-0.484375 2.984375,-1.1875 1.25,-1.046875 1.625,-2.4375 1.625,-2.546875 0,-0.140625 -0.109375,-0.140625 -0.15625,-0.140625 -0.125,0 -0.140625,0.09375 -0.171875,0.15625 -0.65625,2.234375 -2.59375,3.3125 -4.03125,3.3125 -1.515625,0 -2.84375,-0.984375 -2.84375,-3.015625 0,-0.453125 0.140625,-2.953125 1.765625,-4.828125 0.796875,-0.921875 2.140625,-1.734375 3.5,-1.734375 1.578125,0 2.28125,1.3125 2.28125,2.78125 0,0.359375 -0.046875,0.6875 -0.046875,0.734375 0,0.140625 0.140625,0.140625 0.1875,0.140625 0.15625,0 0.171875,-0.015625 0.234375,-0.28125 z m 0,0"
           id="id-476947a2-fed0-487b-9fe0-22e303d80e76" />
      </g>
    </g>
    <g
       fill="#000000"
       fill-opacity="1"
       id="id-e0f37f0c-254f-4cad-9e1a-fd4c4d0e63a7"
       transform="translate(-86.9452,-71.9999)">
      <g
         transform="translate(104.106,92.855)"
         id="g312">
        <path
           d="m 4.578125,-3.1875 c 0,-0.796875 -0.046875,-1.59375 -0.390625,-2.328125 -0.453125,-0.96875 -1.28125,-1.125 -1.6875,-1.125 -0.609375,0 -1.328125,0.265625 -1.75,1.1875 -0.3125,0.6875 -0.359375,1.46875 -0.359375,2.265625 0,0.75 0.03125,1.640625 0.453125,2.40625 0.421875,0.796875 1.15625,1 1.640625,1 0.53125,0 1.296875,-0.203125 1.734375,-1.15625 0.3125,-0.6875 0.359375,-1.46875 0.359375,-2.25 z M 2.484375,0 C 2.09375,0 1.5,-0.25 1.328125,-1.203125 1.21875,-1.796875 1.21875,-2.71875 1.21875,-3.3125 c 0,-0.640625 0,-1.296875 0.078125,-1.828125 0.1875,-1.1875 0.9375,-1.28125 1.1875,-1.28125 0.328125,0 0.984375,0.1875 1.171875,1.171875 0.109375,0.5625 0.109375,1.3125 0.109375,1.9375 0,0.75 0,1.421875 -0.109375,2.0625 C 3.5,-0.296875 2.9375,0 2.484375,0 Z m 0,0"
           id="id-f1cc2ce0-a1a9-4b82-b805-d870ef818a55" />
      </g>
    </g>
    <path
       fill="none"
       stroke-width="0.79701"
       stroke-linecap="butt"
       stroke-linejoin="miter"
       stroke="#000000"
       stroke-opacity="1"
       stroke-miterlimit="10"
       d="m 142.74226,14.878973 c 0,-8 -6.48437,-14.480468 -14.48047,-14.480468 -7.99609,0 -14.47657,6.480468 -14.47657,14.480468 0,7.996094 6.48048,14.476563 14.47657,14.476563 7.9961,0 14.48047,-6.480469 14.48047,-14.476563 z m 0,0"
       id="id-b462d6f5-3bf8-4513-a5ea-a24a7fd5d5de" />
    <g
       fill="#000000"
       fill-opacity="1"
       id="id-472571d1-4203-4e29-9d78-563cf4492356"
       transform="translate(-86.9452,-71.9999)">
      <g
         transform="translate(207.442,90.703)"
         id="g5842">
        <path
           d="m 10.71875,-9.96875 c 0,-0.125 -0.109375,-0.125 -0.140625,-0.125 -0.01563,0 -0.07813,0 -0.1875,0.140625 l -1,1.203125 c -0.5,-0.859375 -1.28125,-1.34375 -2.359375,-1.34375 -3.09375,0 -6.3125,3.140625 -6.3125,6.515625 0,2.390625 1.671875,3.875 3.765625,3.875 1.15625,0 2.15625,-0.484375 2.984375,-1.1875 1.25,-1.046875 1.625,-2.4375 1.625,-2.546875 0,-0.140625 -0.109375,-0.140625 -0.15625,-0.140625 -0.125,0 -0.140625,0.09375 -0.171875,0.15625 -0.65625,2.234375 -2.59375,3.3125 -4.03125,3.3125 -1.515625,0 -2.84375,-0.984375 -2.84375,-3.015625 0,-0.453125 0.140625,-2.953125 1.765625,-4.828125 0.796875,-0.921875 2.140625,-1.734375 3.5,-1.734375 1.578125,0 2.28125,1.3125 2.28125,2.78125 0,0.359375 -0.046875,0.6875 -0.046875,0.734375 0,0.140625 0.140625,0.140625 0.1875,0.140625 0.15625,0 0.171875,-0.015625 0.234375,-0.28125 z m 0,0"
           id="id-4ad34dbd-bec3-4d03-97b2-6a09c134acf6" />
      </g>
    </g>
    <g
       fill="#000000"
       fill-opacity="1"
       id="id-de1b9350-7451-41c8-a4b4-b22b7c091b4d"
       transform="translate(-86.9452,-71.9999)">
      <g
         transform="translate(217.492,92.855)"
         id="g9480">
        <path
           d="m 2.9375,-6.375 c 0,-0.25 0,-0.265625 -0.234375,-0.265625 C 2.078125,-6 1.203125,-6 0.890625,-6 v 0.3125 c 0.203125,0 0.78125,0 1.296875,-0.265625 v 5.171875 c 0,0.359375 -0.03125,0.46875 -0.921875,0.46875 h -0.3125 V 0 c 0.34375,-0.03125 1.203125,-0.03125 1.609375,-0.03125 0.390625,0 1.265625,0 1.609375,0.03125 v -0.3125 h -0.3125 c -0.90625,0 -0.921875,-0.109375 -0.921875,-0.46875 z m 0,0"
           id="id-2b7d1f58-d4c9-493e-a8eb-ec0443c8e49b" />
      </g>
    </g>
    <path
       fill="none"
       stroke-width="0.79701"
       stroke-linecap="butt"
       stroke-linejoin="miter"
       stroke="#000000"
       stroke-opacity="1"
       stroke-miterlimit="10"
       d="m 256.12898,14.878973 c 0,-8 -6.48047,-14.480468 -14.48047,-14.480468 -7.99609,0 -14.47656,6.480468 -14.47656,14.480468 0,7.996094 6.48047,14.476563 14.47656,14.476563 8,0 14.48047,-6.480469 14.48047,-14.476563 z m 0,0"
       id="id-8758857a-f9c3-4589-a192-bb0585602998" />
    <g
       fill="#000000"
       fill-opacity="1"
       id="id-a6fff8c8-4285-4bea-bcdb-407438c7f28c"
       transform="translate(-86.9452,-71.9999)">
      <g
         transform="translate(320.828,90.703)"
         id="g1747">
        <path
           d="m 10.71875,-9.96875 c 0,-0.125 -0.109375,-0.125 -0.140625,-0.125 -0.01563,0 -0.07813,0 -0.1875,0.140625 l -1,1.203125 c -0.5,-0.859375 -1.28125,-1.34375 -2.359375,-1.34375 -3.09375,0 -6.3125,3.140625 -6.3125,6.515625 0,2.390625 1.671875,3.875 3.765625,3.875 1.15625,0 2.15625,-0.484375 2.984375,-1.1875 1.25,-1.046875 1.625,-2.4375 1.625,-2.546875 0,-0.140625 -0.109375,-0.140625 -0.15625,-0.140625 -0.125,0 -0.140625,0.09375 -0.171875,0.15625 -0.65625,2.234375 -2.59375,3.3125 -4.03125,3.3125 -1.515625,0 -2.84375,-0.984375 -2.84375,-3.015625 0,-0.453125 0.140625,-2.953125 1.765625,-4.828125 0.796875,-0.921875 2.140625,-1.734375 3.5,-1.734375 1.578125,0 2.28125,1.3125 2.28125,2.78125 0,0.359375 -0.046875,0.6875 -0.046875,0.734375 0,0.140625 0.140625,0.140625 0.1875,0.140625 0.15625,0 0.171875,-0.015625 0.234375,-0.28125 z m 0,0"
           id="id-5c35602e-0eae-4f56-ac41-a6f84be74c76" />
      </g>
    </g>
    <g
       fill="#000000"
       fill-opacity="1"
       id="id-c118b36c-c75c-4e67-9073-87763588f716"
       transform="translate(-86.9452,-71.9999)">
      <g
         transform="translate(330.878,92.855)"
         id="g7403">
        <path
           d="m 1.265625,-0.765625 1.0625,-1.03125 c 1.546875,-1.375 2.140625,-1.90625 2.140625,-2.90625 0,-1.140625 -0.890625,-1.9375 -2.109375,-1.9375 -1.125,0 -1.859375,0.921875 -1.859375,1.8125 0,0.546875 0.5,0.546875 0.53125,0.546875 0.171875,0 0.515625,-0.109375 0.515625,-0.53125 0,-0.25 -0.1875,-0.515625 -0.53125,-0.515625 -0.078125,0 -0.09375,0 -0.125,0.015625 0.21875,-0.65625 0.765625,-1.015625 1.34375,-1.015625 0.90625,0 1.328125,0.8125 1.328125,1.625 C 3.5625,-3.90625 3.078125,-3.125 2.515625,-2.5 l -1.90625,2.125 C 0.5,-0.265625 0.5,-0.234375 0.5,0 H 4.203125 L 4.46875,-1.734375 H 4.234375 C 4.171875,-1.4375 4.109375,-1 4,-0.84375 3.9375,-0.765625 3.28125,-0.765625 3.0625,-0.765625 Z m 0,0"
           id="id-3c4d63e5-a04e-4dd5-a425-0f52e41367e4" />
      </g>
    </g>
    <path
       fill="none"
       stroke-width="0.79701"
       stroke-linecap="butt"
       stroke-linejoin="miter"
       stroke="#000000"
       stroke-opacity="1"
       stroke-miterlimit="10"
       d="M 29.753974,14.878973 H 110.95319"
       id="id-0dce01cb-2ce4-4f7b-b128-f481e8c8f6aa" />
    <path
       fill-rule="nonzero"
       fill="#000000"
       fill-opacity="1"
       stroke-width="0.79701"
       stroke-linecap="butt"
       stroke-linejoin="round"
       stroke="#000000"
       stroke-opacity="1"
       stroke-miterlimit="10"
       d="m 111.99226,14.878973 c -1.29688,-0.261718 -2.58985,-0.777343 -4.14454,-1.6875 1.55469,1.167969 1.55469,2.203125 0,3.371094 1.55469,-0.910156 2.84766,-1.425781 4.14454,-1.683594 z m 0,0"
       id="id-d8bbf699-9819-4a5a-b899-79e31e5ad96d" />
    <path
       fill="none"
       stroke-width="0.79701"
       stroke-linecap="butt"
       stroke-linejoin="miter"
       stroke="#000000"
       stroke-opacity="1"
       stroke-miterlimit="10"
       d="m 143.1407,14.878973 h 81.20312"
       id="id-ec778a99-e24b-49a7-9b82-80fd178db34b" />
    <path
       fill-rule="nonzero"
       fill="#000000"
       fill-opacity="1"
       stroke-width="0.79701"
       stroke-linecap="butt"
       stroke-linejoin="round"
       stroke="#000000"
       stroke-opacity="1"
       stroke-miterlimit="10"
       d="m 225.37897,14.878973 c -1.29687,-0.261718 -2.58984,-0.777343 -4.14453,-1.6875 1.55469,1.167969 1.55469,2.203125 0,3.371094 1.55469,-0.910156 2.84766,-1.425781 4.14453,-1.683594 z m 0,0"
       id="id-2e45cd70-a9f5-432f-a3ca-4243dc4e3984" />
    <path
       fill="none"
       stroke-width="0.79701"
       stroke-linecap="butt"
       stroke-linejoin="miter"
       stroke="#000000"
       stroke-opacity="1"
       stroke-miterlimit="10"
       d="m 132.11335,29.246161 c 6.21875,23.203125 -13.91796,23.203125 -8.32812,2.347656"
       id="id-0b565eca-0cdc-4864-b24f-d77a774e5cf9" />
    <path
       fill-rule="nonzero"
       fill="#000000"
       fill-opacity="1"
       stroke-width="0.797007"
       stroke-linecap="butt"
       stroke-linejoin="round"
       stroke="#000000"
       stroke-opacity="1"
       stroke-miterlimit="10"
       d="m 124.05085,30.593817 c -0.58594,1.183593 -1.41797,2.300781 -2.69922,3.570313 1.53125,-1.203126 2.53125,-0.933595 3.25391,0.871093 -0.47266,-1.738281 -0.63672,-3.121094 -0.55469,-4.441406 z m 0,0"
       id="id-79815d9c-d24a-4cf3-84f5-a02da8df378b" />
  </g>
</svg>
