<?xml version="1.0" encoding="UTF-8" standalone="no"?>
<!-- Created with Inkscape (http://www.inkscape.org/) -->

<svg
   width="297mm"
   height="210mm"
   viewBox="0 0 297 210"
   version="1.1"
   id="svg1"
   inkscape:version="1.3.2 (091e20ef0f, 2023-11-25)"
   sodipodi:docname="example.svg"
   xml:space="preserve"
   inkscape:export-filename="../example.png"
   inkscape:export-xdpi="96"
   inkscape:export-ydpi="96"
   xmlns:inkscape="http://www.inkscape.org/namespaces/inkscape"
   xmlns:sodipodi="http://sodipodi.sourceforge.net/DTD/sodipodi-0.dtd"
   xmlns="http://www.w3.org/2000/svg"
   xmlns:svg="http://www.w3.org/2000/svg"><sodipodi:namedview
     id="namedview1"
     pagecolor="#ffffff"
     bordercolor="#666666"
     borderopacity="1.0"
     inkscape:showpageshadow="2"
     inkscape:pageopacity="0.0"
     inkscape:pagecheckerboard="0"
     inkscape:deskcolor="#d1d1d1"
     inkscape:document-units="mm"
     inkscape:zoom="1"
     inkscape:cx="400"
     inkscape:cy="434.5"
     inkscape:window-width="1920"
     inkscape:window-height="1011"
     inkscape:window-x="0"
     inkscape:window-y="32"
     inkscape:window-maximized="1"
     inkscape:current-layer="svg1" /><defs
     id="defs1" /><circle
     style="opacity:0.752327;fill:#000000;fill-opacity:1;stroke:none;stroke-width:0.7;stroke-linecap:round;stroke-dasharray:0.7, 1.4;stroke-dashoffset:0"
     id="path10"
     cx="56.720715"
     cy="166.94112"
     r="3.2109556" /><g
     transform="matrix(0.00128384,0,0,-0.00128384,86.313709,101.69833)"
     fill="#000000"
     stroke="none"
     id="g8"
     style="fill:#d45500"><path
       d="m 6095,12754 c -655,-42 -1166,-139 -1744,-331 -444,-147 -985,-405 -1366,-651 -91,-58 -93,-58 95,-37 191,22 650,30 840,16 641,-48 1163,-190 1735,-471 249,-123 479,-261 885,-532 191,-127 360,-232 430,-266 108,-53 119,-57 190,-57 73,0 77,1 154,50 44,28 127,95 184,149 187,180 303,388 358,646 25,118 26,372 1,490 -64,304 -227,611 -469,883 l -43,48 -115,15 c -247,32 -448,45 -755,48 -176,2 -347,2 -380,0 z"
       id="path1-2"
       style="fill:#d45500" /><path
       d="m 7630,12635 c 0,-3 22,-38 48,-78 208,-310 348,-642 393,-932 18,-113 15,-322 -5,-434 -58,-326 -246,-648 -586,-1003 -61,-65 -110,-121 -108,-126 2,-6 858,-808 944,-884 21,-18 23,-17 300,204 1091,868 1493,1147 2067,1435 103,52 187,100 187,107 0,22 -213,221 -410,382 -811,665 -1775,1123 -2797,1329 -18,4 -33,4 -33,0 z"
       id="path2"
       style="fill:#d45500" /><path
       d="m 3110,11619 c -159,-15 -255,-30 -365,-56 -107,-25 -113,-28 -210,-102 C 1215,10462 324,8969 75,7341 46,7147 37,7058 50,7085 c 5,11 24,59 43,106 207,523 788,945 1767,1283 536,186 1045,312 2333,581 1168,243 1541,338 1917,487 315,125 532,269 623,415 32,51 67,152 67,194 0,121 -278,400 -595,597 -605,374 -1369,670 -2073,801 -376,71 -751,96 -1022,70 z"
       id="path3"
       style="fill:#d45500" /><path
       d="m 10870,10627 c -751,-483 -1593,-1102 -2163,-1591 -83,-71 -126,-114 -122,-124 10,-28 820,-1041 833,-1041 7,-1 70,28 141,63 409,206 826,336 1199,377 142,15 423,7 552,-16 531,-95 970,-413 1349,-980 61,-92 91,-130 87,-110 -3,17 -13,77 -21,135 -89,612 -291,1250 -580,1835 -205,416 -414,752 -684,1100 -152,196 -387,465 -406,465 -5,-1 -89,-51 -185,-113 z"
       id="path4"
       style="fill:#d45500" /><path
       d="M 7155,9859 C 7141,9837 6940,9683 6835,9615 6436,9354 5927,9150 5225,8970 4910,8889 4640,8830 3919,8685 2873,8474 2479,8380 2025,8233 1053,7918 431,7481 78,6865 17,6759 15,6753 8,6665 -2,6524 -1,6231 10,6029 71,4941 388,3925 957,3002 c 183,-297 536,-769 565,-756 7,3 101,114 208,247 1837,2275 3838,4331 6063,6227 152,129 276,240 277,245 0,7 -897,903 -907,905 -1,0 -5,-5 -8,-11 z"
       id="path5"
       style="fill:#d45500" /><path
       d="M 8124,8517 C 6256,7104 4445,5311 2194,2645 c -417,-495 -504,-599 -504,-606 0,-4 78,-85 172,-181 C 2856,860 4135,219 5510,31 c 277,-38 246,-39 363,18 317,156 594,420 823,784 200,317 417,846 554,1352 99,363 186,742 290,1255 11,52 60,295 109,540 211,1043 307,1438 476,1955 36,109 143,393 187,495 233,534 515,930 853,1195 28,22 52,40 54,42 6,4 -830,1028 -842,1030 -7,2 -120,-79 -253,-180 z"
       id="path6"
       style="fill:#d45500" /><path
       d="m 10580,8093 c -19,-2 -83,-13 -142,-23 -283,-53 -506,-170 -647,-340 -61,-73 -65,-106 -25,-208 44,-111 82,-175 373,-632 216,-338 352,-562 476,-780 700,-1233 956,-2343 779,-3380 -25,-145 -80,-377 -108,-457 -8,-24 -12,-43 -8,-42 9,0 179,214 274,344 668,913 1073,1937 1203,3040 40,347 55,771 36,1069 l -12,189 -41,81 c -308,614 -942,1039 -1688,1132 -102,13 -377,17 -470,7 z"
       id="path7"
       style="fill:#d45500" /><path
       d="M 9255,7311 C 8893,7180 8607,6749 8375,5985 8251,5575 8159,5187 7960,4225 7717,3051 7618,2629 7469,2130 7255,1411 7002,857 6713,472 6611,336 6449,164 6335,72 l -80,-65 305,6 c 954,18 1859,245 2725,682 576,291 1051,627 1537,1086 144,137 147,141 198,245 95,194 158,419 196,694 22,153 25,572 6,760 -58,575 -219,1194 -472,1820 -324,800 -764,1531 -1138,1891 -108,105 -111,107 -180,123 -89,20 -115,20 -177,-3 z"
       id="path8"
       style="fill:#d45500" /></g><g
     id="g2"
     transform="matrix(0.80301367,0,0,0.80301367,62.047609,25.681751)"
     inkscape:label="Basket"><path
       fill="#000000"
       d="m 40.120042,24.712893 c -18.09893,0 -28.69206,10.53041 -36.33224,23.263794 l -0.20117,0.33508 v 21.377967 l 22.30702,9.91383 c 1.58128,5.490008 2.7803,9.92119 2.7803,16.76481 h 2.82233 c 0,-0.372846 -0.004,-0.737396 -0.011,-1.097562 h 3.49717 l 0.0635,1.173452 2.8181,-0.15177 -0.0549,-1.021682 h 4.56903 l -0.0574,1.018542 2.81809,0.15805 0.0662,-1.176592 h 3.54986 c -0.007,0.360636 -0.0113,0.725026 -0.0113,1.097562 h 2.82233 c 0,-6.78373 1.17675,-11.335632 2.73656,-16.74521 L 76.65345,69.689734 V 48.311917 l -0.20117,-0.33554 C 68.812112,35.243303 58.218982,24.712893 40.120042,24.712893 Z m 0,2.82233 c 16.87233,0 26.3279,9.37513 33.7111,21.569304 v 18.750709 l -18.50614,8.224992 c 0.30607,-1.072166 0.61888,-2.197638 0.9345,-3.38787 h 3.9304 V 67.36134 h -3.6063 V 47.291487 H 23.656492 V 67.36134 h -3.60631 v 5.331018 h 3.9235 c 0.30811,1.191172 0.61245,2.311944 0.91099,3.37423 L 6.408952,67.855236 V 49.104527 c 7.3832,-12.194014 16.83877,-21.569304 33.71109,-21.569304 z m -13.64123,22.578594 h 27.28247 V 67.36134 h -27.28247 z m 0.40924,22.578541 h 6.87753 l 0.25354,4.703842 h -5.81948 c -0.42491,-1.474332 -0.86676,-3.022214 -1.31144,-4.703842 z m 9.70377,0 h 7.05299 l -0.26388,4.703842 h -6.53557 z m 9.88002,0 h 6.86829 c -0.45158,1.666728 -0.90158,3.21586 -1.33387,4.703842 h -5.79831 z m -17.46344,7.526156 h 5.16297 l 0.25369,4.703838 h -4.19522 c -0.35593,-1.571078 -0.77175,-3.11394 -1.22144,-4.703838 z m 7.98921,0 h 6.22479 l -0.26373,4.703838 h -5.70736 z m 9.05182,0 h 5.14682 c -0.44373,1.578138 -0.85344,3.12335 -1.20466,4.703838 h -4.20589 l 0.26389,-4.703838 z m -15.25748,7.526152 h 3.78505 l 0.25369,4.703842 h -3.47145 c -0.11948,-1.673472 -0.31391,-3.22213 -0.56729,-4.703842 z m 6.61145,0 h 5.39723 l -0.26405,4.703842 h -4.87948 z m 8.22394,0 h 3.8117 c -0.2493,1.485782 -0.44028,3.03711 -0.55866,4.703842 h -3.51693 l 0.2642,-4.703842 z"
       id="path1-29"
       style="stroke-width:0.156796" /><path
       style="opacity:0.752327;fill:#cccccc;fill-opacity:0.752941;stroke:none;stroke-width:0.871716;stroke-linecap:round;stroke-dasharray:0.871716, 1.74343;stroke-dashoffset:0"
       d="m 26.632412,58.717819 v -8.401943 h 13.509007 13.509006 v 8.401943 8.401931 H 40.141419 26.632412 Z"
       id="path9-3" /><text
       xml:space="preserve"
       style="font-size:12.3009px;line-height:1.25;font-family:sans-serif;stroke-width:0.264583"
       x="36.526768"
       y="62.583515"
       id="text1-1"
       inkscape:label="Score"><tspan
         sodipodi:role="line"
         id="tspan1-9"
         style="font-size:12.3009px;stroke-width:0.264583"
         x="36.526768"
         y="62.583515">1</tspan></text></g><g
     inkscape:label="Layer 1"
     inkscape:groupmode="layer"
     id="layer1"><g
       id="g1"
       transform="matrix(0.80301366,0,0,0.80301366,0.7065175,-2.9658083)"
       inkscape:label="Basket"
       style="display:inline"><path
         fill="#000000"
         d="m 40.120042,60.956573 c -18.09893,0 -28.69206,10.53041 -36.33224,23.263794 l -0.20117,0.33508 v 21.378003 l 22.30702,9.91389 c 1.58128,5.49004 2.7803,9.92125 2.7803,16.76491 h 2.82233 c 0,-0.37285 -0.004,-0.7374 -0.011,-1.09757 h 3.49717 l 0.0635,1.17346 2.8181,-0.15177 -0.0549,-1.02169 h 4.56903 l -0.0574,1.01855 2.81809,0.15805 0.0662,-1.1766 h 3.54986 c -0.007,0.36064 -0.0113,0.72503 -0.0113,1.09757 h 2.82233 c 0,-6.78377 1.17675,-11.3357 2.73656,-16.74531 L 76.65345,105.93345 V 84.555597 l -0.20117,-0.33554 C 68.812112,71.486983 58.218982,60.956573 40.120042,60.956573 Z m 0,2.82233 c 16.87233,0 26.3279,9.37513 33.7111,21.569304 v 18.750733 l -18.50614,8.22504 c 0.30607,-1.07217 0.61888,-2.19765 0.9345,-3.38789 h 3.9304 v -5.33105 h -3.6063 V 83.535167 h -32.92711 v 20.069873 h -3.60631 v 5.33105 h 3.9235 c 0.30811,1.19118 0.61245,2.31196 0.91099,3.37425 l -18.47572,-8.2114 V 85.348207 c 7.3832,-12.194014 16.83877,-21.569304 33.71109,-21.569304 z m -13.64123,22.578594 h 27.28247 v 17.247543 h -27.28247 z m 0.40924,22.578593 h 6.87753 l 0.25354,4.70387 h -5.81948 c -0.42491,-1.47434 -0.86676,-3.02223 -1.31144,-4.70387 z m 9.70377,0 h 7.05299 l -0.26388,4.70387 h -6.53557 z m 9.88002,0 h 6.86829 c -0.45158,1.66674 -0.90158,3.21588 -1.33387,4.70387 h -5.79831 z m -17.46344,7.5262 h 5.16297 l 0.25369,4.70387 h -4.19522 c -0.35593,-1.57109 -0.77175,-3.11396 -1.22144,-4.70387 z m 7.98921,0 h 6.22479 l -0.26373,4.70387 h -5.70736 z m 9.05182,0 h 5.14682 c -0.44373,1.57815 -0.85344,3.12337 -1.20466,4.70387 h -4.20589 l 0.26389,-4.70387 z m -15.25748,7.5262 h 3.78505 l 0.25369,4.70387 h -3.47145 c -0.11948,-1.67348 -0.31391,-3.22215 -0.56729,-4.70387 z m 6.61145,0 h 5.39723 l -0.26405,4.70387 h -4.87948 z m 8.22394,0 h 3.8117 c -0.2493,1.48579 -0.44028,3.03713 -0.55866,4.70387 h -3.51693 l 0.2642,-4.70387 z"
         id="path1"
         style="stroke-width:0.156796" /><path
         style="opacity:0.752327;fill:#cccccc;fill-opacity:0.752941;stroke:none;stroke-width:2.64567;stroke-linecap:round;stroke-dasharray:2.64567, 5.29134;stroke-dashoffset:0"
         d="m 83.5,387 v -25.5 h 41 41 v 25.5 25.5 h -41 -41 z"
         id="path9"
         transform="matrix(0.32948796,0,0,0.32948796,-0.87983248,-32.550342)" /><text
         xml:space="preserve"
         style="font-size:12.3009px;line-height:1.25;font-family:sans-serif;stroke-width:0.264583"
         x="36.526768"
         y="98.82708"
         id="text1"
         inkscape:label="Score"><tspan
           sodipodi:role="line"
           id="tspan1"
           style="font-size:12.3009px;stroke-width:0.264583"
           x="36.526768"
           y="98.82708">2</tspan></text></g></g><text
     xml:space="preserve"
     style="font-size:7.05556px;line-height:1.25;font-family:sans-serif;stroke-width:0.264583"
     x="58.216835"
     y="177.69989"
     id="text10"><tspan
       sodipodi:role="line"
       id="tspan10"
       style="font-size:7.05556px;text-align:center;text-anchor:middle;stroke-width:0.264583"
       x="58.216835"
       y="177.69989">Oussama's </tspan><tspan
       sodipodi:role="line"
       style="font-size:7.05556px;text-align:center;text-anchor:middle;stroke-width:0.264583"
       x="58.216835"
       y="186.51933"
       id="tspan11">Position</tspan></text><path
     style="fill:none;stroke:#d45500;stroke-width:0.765;stroke-linecap:butt;stroke-linejoin:miter;stroke-dasharray:0.765, 1.53;stroke-dashoffset:0;stroke-opacity:1"
     d="M 57.090338,164.21381 C 72.045821,115.77285 90.730631,43.920049 92.365921,79.113154"
     id="path11"
     sodipodi:nodetypes="cc" /><text
     xml:space="preserve"
     style="font-size:4.23333px;line-height:1.25;font-family:sans-serif;stroke-width:0.264583"
     x="13.850083"
     y="14.407979"
     id="text12"><tspan
       sodipodi:role="line"
       id="tspan12"
       style="stroke-width:0.264583"
       x="13.850083"
       y="14.407979" /></text></svg>
